<?xml version="1.0" standalone="no"?>
<!DOCTYPE svg PUBLIC "-//W3C//DTD SVG 20010904//EN"
 "http://www.w3.org/TR/2001/REC-SVG-20010904/DTD/svg10.dtd">
<svg version="1.0" xmlns="http://www.w3.org/2000/svg"
 width="500.000000pt" height="500.000000pt" viewBox="0 0 500.000000 500.000000"
 preserveAspectRatio="xMidYMid meet">
<metadata>
Created by potrace 1.11, written by Peter Selinger 2001-2013
</metadata>
<g transform="translate(0.000000,500.000000) scale(0.100000,-0.100000)"
fill="#000000" stroke="none">
<path d="M2083 3945 c-821 -82 -1531 -405 -1864 -848 -141 -189 -209 -377
-209 -582 0 -602 639 -1140 1610 -1354 461 -102 999 -120 1485 -50 928 133
1656 578 1840 1124 78 231 51 504 -70 720 -291 521 -1051 902 -1973 990 -191
18 -632 18 -819 0z m716 -35 c855 -66 1576 -379 1919 -835 68 -91 146 -249
173 -350 31 -115 31 -298 0 -415 -245 -934 -1957 -1466 -3426 -1064 -723 198
-1235 600 -1356 1064 -26 100 -31 279 -10 375 139 637 997 1140 2086 1224 151
12 463 12 614 1z"/>
<path d="M3473 3610 c-118 -24 -260 -137 -315 -251 -68 -142 -98 -337 -98
-637 1 -290 21 -431 83 -562 95 -202 363 -304 570 -217 l37 16 0 95 c0 53 -3
96 -7 96 -5 0 -28 -7 -52 -16 -24 -8 -71 -15 -103 -15 -130 -1 -224 83 -264
236 -21 77 -37 354 -29 505 12 251 45 375 122 460 87 97 192 122 316 75 15 -7
17 2 17 93 0 114 8 104 -100 122 -74 11 -117 11 -177 0z"/>
<path d="M1230 2780 l0 -830 110 0 110 0 0 380 0 380 170 0 170 0 0 95 0 95
-170 0 -170 0 0 260 0 260 190 0 190 0 0 95 0 95 -300 0 -300 0 0 -830z"/>
<path d="M2062 2898 l3 -703 24 -60 c35 -87 107 -155 196 -186 93 -31 252 -33
335 -5 83 29 161 111 191 202 l24 69 3 693 3 692 -111 0 -110 0 0 -602 c-1
-606 -7 -768 -34 -832 -19 -46 -64 -68 -136 -68 -78 0 -116 22 -143 80 -22 47
-22 54 -25 735 l-3 687 -110 0 -110 0 3 -702z"/>
<path d="M2487 1743 c-4 -3 -7 -21 -7 -38 0 -26 -4 -31 -22 -31 -18 1 -25 -7
-32 -37 -6 -24 -6 -48 0 -65 8 -22 16 -27 47 -29 l37 -2 0 104 c0 96 -5 117
-23 98z m-7 -139 c0 -32 -4 -44 -12 -42 -14 5 -23 61 -14 85 11 27 26 2 26
-43z"/>
<path d="M1100 1645 c0 -57 4 -95 10 -95 6 0 10 18 10 41 0 32 4 42 20 46 11
3 20 9 20 14 0 5 -9 9 -20 9 -16 0 -20 7 -20 30 0 25 4 30 25 30 14 0 25 5 25
10 0 6 -16 10 -35 10 l-35 0 0 -95z"/>
<path d="M1200 1725 c0 -9 5 -15 11 -13 6 2 11 8 11 13 0 5 -5 11 -11 13 -6 2
-11 -4 -11 -13z"/>
<path d="M2180 1652 c0 -93 8 -112 45 -112 12 0 26 5 33 12 15 15 17 188 2
188 -6 0 -10 -29 -10 -67 0 -80 -8 -113 -25 -113 -19 0 -25 24 -25 106 0 43
-4 74 -10 74 -6 0 -10 -36 -10 -88z"/>
<path d="M3179 1711 c-21 -17 -24 -27 -24 -86 0 -59 3 -69 24 -86 26 -21 52
-22 59 -1 2 7 -5 12 -17 12 -26 0 -41 28 -41 75 0 47 15 75 41 75 12 0 19 5
17 13 -7 20 -33 19 -59 -2z"/>
<path d="M3780 1630 c0 -82 3 -100 15 -100 12 0 15 18 15 100 0 82 -3 100 -15
100 -12 0 -15 -18 -15 -100z"/>
<path d="M1258 1698 c-7 -42 6 -151 20 -156 9 -3 12 13 12 56 0 39 5 62 13 66
10 5 10 7 0 12 -7 3 -13 14 -13 25 0 27 -27 24 -32 -3z"/>
<path d="M3510 1681 c0 -11 -6 -22 -12 -25 -10 -5 -10 -7 0 -12 7 -4 12 -27
12 -65 0 -33 4 -59 10 -59 6 0 10 26 10 59 0 33 5 61 10 63 7 2 6 13 -2 30
-15 32 -28 36 -28 9z"/>
<path d="M1200 1610 c0 -40 4 -70 10 -70 6 0 10 30 10 70 0 40 -4 70 -10 70
-6 0 -10 -30 -10 -70z"/>
<path d="M1330 1615 c0 -51 3 -65 15 -65 12 0 15 13 15 55 0 42 3 55 15 55 12
0 15 -13 15 -55 0 -30 5 -55 10 -55 6 0 10 28 10 65 l0 65 -40 0 -40 0 0 -65z"/>
<path d="M1462 1668 c-28 -28 -6 -128 28 -128 11 0 40 29 40 41 0 15 -18 10
-28 -8 -9 -15 -11 -14 -20 4 -13 24 -7 33 25 33 17 0 23 6 23 23 0 27 -17 47
-40 47 -9 0 -21 -5 -28 -12z m46 -26 c2 -7 -5 -12 -17 -12 -14 0 -19 5 -14 15
6 17 25 15 31 -3z"/>
<path d="M1577 1673 c-14 -13 -7 -47 14 -69 22 -24 18 -47 -6 -37 -8 3 -15 1
-15 -5 0 -13 26 -23 44 -16 32 12 27 54 -8 84 -22 17 -20 30 4 30 11 0 20 5
20 10 0 11 -43 14 -53 3z"/>
<path d="M1677 1673 c-13 -12 -7 -40 13 -63 23 -27 21 -46 -4 -42 -9 2 -16 -2
-16 -8 0 -5 2 -10 4 -10 2 0 11 -3 19 -6 14 -5 47 20 47 36 0 5 -12 23 -26 40
-27 31 -27 31 -5 37 11 3 21 9 21 14 0 10 -43 12 -53 2z"/>
<path d="M2310 1609 c0 -39 4 -69 10 -69 6 0 10 24 10 54 0 55 15 81 31 55 5
-8 9 -35 9 -61 0 -27 5 -48 10 -48 7 0 10 25 8 68 l-3 67 -37 1 -38 1 0 -68z"/>
<path d="M2556 1658 c-19 -27 -21 -78 -3 -102 18 -25 61 -18 65 12 2 12 -1 22
-7 22 -6 0 -11 -7 -11 -15 0 -8 -7 -15 -15 -15 -8 0 -15 9 -15 19 0 14 8 21
28 23 22 2 26 7 24 28 -8 52 -40 65 -66 28z m42 -21 c2 -10 -3 -17 -12 -17
-10 0 -16 9 -16 21 0 24 23 21 28 -4z"/>
<path d="M2660 1608 c0 -39 4 -68 10 -68 6 0 10 20 10 45 0 33 5 50 20 62 27
24 25 30 -10 30 l-30 0 0 -69z"/>
<path d="M3277 1653 c-4 -3 -7 -30 -7 -59 0 -42 4 -55 19 -64 25 -13 27 -13
45 6 19 18 22 94 4 112 -13 13 -50 16 -61 5z m47 -39 c8 -32 -2 -66 -17 -61
-7 2 -13 16 -15 31 -7 54 20 78 32 30z"/>
<path d="M3380 1594 c0 -50 3 -64 15 -64 12 0 15 13 15 55 0 42 3 55 15 55 12
0 15 -13 15 -55 0 -43 3 -55 15 -55 13 0 15 11 13 63 l-3 62 -42 2 -43 2 0
-65z"/>
<path d="M3572 1593 c2 -42 8 -68 16 -71 9 -3 12 12 12 52 0 41 4 58 15 62 25
10 17 21 -15 22 l-31 1 3 -66z"/>
<path d="M3672 1648 c-26 -26 -7 -128 24 -128 38 0 63 64 45 113 -11 29 -47
37 -69 15z m43 -56 c0 -59 -19 -57 -23 2 -2 36 0 47 10 44 8 -3 13 -21 13 -46z"/>
</g>
</svg>
